<?xml version="1.0" encoding="utf-8"?>
<!-- Generator: Adobe Illustrator 16.0.0, SVG Export Plug-In . SVG Version: 6.00 Build 0)  -->
<!DOCTYPE svg PUBLIC "-//W3C//DTD SVG 1.1//EN" "http://www.w3.org/Graphics/SVG/1.1/DTD/svg11.dtd">
<svg version="1.1" id="图层_1" xmlns="http://www.w3.org/2000/svg" xmlns:xlink="http://www.w3.org/1999/xlink" x="0px" y="0px"
	 width="320px" height="320px" viewBox="0 0 320 320" enable-background="new 0 0 320 320" xml:space="preserve">
<g>
	<circle opacity="0.5" fill="#B7D2FB" cx="163.64" cy="160.925" r="126"/>
	<g>
		<g>
			<path fill="#6E9AF4" d="M133.024,50.205H92.786c-4.296,0-7.778,3.482-7.778,7.778v40.238c0,4.296,3.482,7.778,7.778,7.778h40.238
				c4.296,0,7.778-3.482,7.778-7.778V57.983C140.803,53.688,137.32,50.205,133.024,50.205z"/>
		</g>
	</g>
	<path fill="#B7D2FB" d="M202.411,85.55v-7.61h-4.256c-0.338-1.276-0.846-2.481-1.492-3.597l3.012-3.012l-5.381-5.383l-3.014,3.012
		c-1.113-0.646-2.32-1.153-3.596-1.492v-4.256h-7.611v4.256c-1.275,0.339-2.482,0.846-3.598,1.492l-3.012-3.012l-5.381,5.383
		l3.012,3.012c-0.646,1.115-1.154,2.32-1.492,3.597h-4.258v7.61h4.258c0.338,1.275,0.846,2.482,1.492,3.598l-3.012,3.012
		l5.381,5.381l3.012-3.012c1.115,0.647,2.322,1.154,3.598,1.493v4.257h7.611v-4.257c1.275-0.339,2.482-0.846,3.596-1.493
		l3.014,3.012l5.381-5.381l-3.012-3.012c0.646-1.115,1.154-2.322,1.492-3.598H202.411z M183.878,88.345c-3.645,0-6.6-2.955-6.6-6.6
		c0-3.646,2.955-6.602,6.6-6.602c3.646,0,6.602,2.955,6.602,6.602C190.479,85.39,187.524,88.345,183.878,88.345z"/>
	<path fill="#B7D2FB" d="M218.659,66.114v-3.806h-2.127c-0.17-0.638-0.424-1.241-0.748-1.798l1.508-1.506l-2.691-2.691l-1.506,1.506
		c-0.559-0.324-1.162-0.577-1.799-0.746v-2.129h-3.805v2.129c-0.639,0.169-1.242,0.422-1.799,0.746l-1.506-1.506l-2.691,2.691
		l1.506,1.506c-0.324,0.557-0.576,1.16-0.746,1.798h-2.129v3.806h2.129c0.17,0.638,0.422,1.24,0.746,1.799l-1.506,1.506l2.691,2.69
		l1.506-1.506c0.557,0.323,1.16,0.577,1.799,0.746v2.128h3.805V71.35c0.637-0.169,1.24-0.423,1.799-0.746l1.506,1.506l2.691-2.69
		l-1.508-1.506c0.324-0.559,0.578-1.161,0.748-1.799H218.659z M209.394,67.512c-1.822,0-3.301-1.478-3.301-3.3
		c0-1.823,1.479-3.301,3.301-3.301s3.301,1.478,3.301,3.301C212.694,66.034,211.216,67.512,209.394,67.512z"/>
	<g>
		<path fill="#05025C" d="M64.371,110.729c-3.555,0-6.464,2.909-6.464,6.464v131.332c0,3.556,2.909,6.465,6.464,6.465h190.79
			c3.556,0,6.464-2.909,6.464-6.465V117.192c0-3.555-2.908-6.464-6.464-6.464H64.371z"/>
		<g>
			<path fill="#5A77CF" d="M230.837,251.988H88.969H34.725c0,0,2.713,3.001,10.953,3.001h43.291h141.868h43.291
				c8.24,0,10.952-3.001,10.952-3.001H230.837z"/>
			<rect x="34.725" y="247.189" fill="#D2DAFD" width="250.355" height="4.799"/>
			<path fill="#5A77CF" d="M177.637,247.78h-35.119c0,1.211,0.981,2.191,2.19,2.191h30.738
				C176.655,249.972,177.637,248.991,177.637,247.78z"/>
		</g>
	</g>
	<g>
		<defs>
			<rect id="SVGID_1_" x="63.178" y="118.38" width="193.45" height="124.796"/>
		</defs>
		<clipPath id="SVGID_2_">
			<use xlink:href="#SVGID_1_"  overflow="visible"/>
		</clipPath>
		<rect x="62.191" y="118.565" clip-path="url(#SVGID_2_)" fill="#8197ED" width="197.352" height="7.791"/>
		<path clip-path="url(#SVGID_2_)" fill="#B9C4F8" d="M67.571,122.55c0,0.911-0.738,1.649-1.649,1.649s-1.65-0.738-1.65-1.649
			s0.739-1.65,1.65-1.65S67.571,121.639,67.571,122.55"/>
		<path clip-path="url(#SVGID_2_)" fill="#B9C4F8" d="M72.993,122.55c0,0.911-0.739,1.649-1.65,1.649s-1.649-0.738-1.649-1.649
			s0.738-1.65,1.649-1.65S72.993,121.639,72.993,122.55"/>
		<path clip-path="url(#SVGID_2_)" fill="#B9C4F8" d="M78.414,122.55c0,0.911-0.738,1.649-1.649,1.649s-1.65-0.738-1.65-1.649
			s0.739-1.65,1.65-1.65S78.414,121.639,78.414,122.55"/>
		<rect x="62.191" y="126.356" clip-path="url(#SVGID_2_)" fill="#B9C4F8" width="197.352" height="116.819"/>
	</g>
	<linearGradient id="SVGID_3_" gradientUnits="userSpaceOnUse" x1="63.6885" y1="185.4248" x2="257.6885" y2="185.4248">
		<stop  offset="0" style="stop-color:#FFFFFF"/>
		<stop  offset="0.9683" style="stop-color:#FFFFFF"/>
	</linearGradient>
	<rect x="63.688" y="126.925" fill="url(#SVGID_3_)" width="194" height="117"/>
	<path fill="#4850F1" d="M286.956,157.305h-35.433c-3.782,0-6.849,3.066-6.849,6.85v35.432c0,3.783,3.066,6.85,6.849,6.85h35.433
		c3.782,0,6.849-3.066,6.849-6.85v-35.432C293.805,160.371,290.738,157.305,286.956,157.305z"/>
	<path fill="#FF605E" d="M67.505,167.018H28.931c-4.117,0-7.455,3.338-7.455,7.456v38.573c0,4.118,3.338,7.457,7.455,7.457h38.574
		c4.117,0,7.455-3.339,7.455-7.457v-38.573C74.96,170.355,71.622,167.018,67.505,167.018z"/>
	<path fill="#FF605E" d="M263.378,82.176h-31.961c-3.412,0-6.178,2.766-6.178,6.178v31.961c0,3.412,2.766,6.178,6.178,6.178h31.961
		c3.412,0,6.178-2.766,6.178-6.178V88.354C269.556,84.941,266.79,82.176,263.378,82.176z"/>
	<path fill="#6E9AF4" d="M208.366,220.484h-32.729c-3.494,0-6.326,2.833-6.326,6.327v32.729c0,3.494,2.832,6.326,6.326,6.326h32.729
		c3.494,0,6.328-2.832,6.328-6.326v-32.729C214.694,223.317,211.86,220.484,208.366,220.484z"/>
	<path fill="#FFFFFF" d="M107.206,70.579c-0.562-0.45-1.384-0.36-1.834,0.203c-0.002,0-0.004,0.003-0.005,0.006l-5.218,6.521
		c-0.381,0.477-0.381,1.153,0,1.631l5.218,6.521c0.468,0.548,1.29,0.612,1.839,0.145c0.523-0.446,0.609-1.224,0.195-1.774
		l-4.565-5.713l4.565-5.711C107.849,71.846,107.761,71.031,107.206,70.579z M125.66,77.309l-5.218-6.521
		c-0.467-0.548-1.29-0.613-1.838-0.146c-0.523,0.446-0.609,1.225-0.196,1.775l4.565,5.699l-4.565,5.713
		c-0.433,0.575-0.315,1.394,0.261,1.826c0.55,0.413,1.327,0.327,1.773-0.196l5.218-6.521
		C126.042,78.462,126.042,77.785,125.66,77.309z M115.136,67.684c-0.705-0.152-1.398,0.295-1.551,0.998
		c-0.001,0.003-0.002,0.005-0.002,0.007l-3.912,18.259c-0.18,0.698,0.239,1.408,0.937,1.589c0.022,0.005,0.045,0.011,0.067,0.015
		h0.273c0.626,0.015,1.174-0.418,1.305-1.03l3.912-18.259c0.164-0.701-0.271-1.402-0.974-1.566
		C115.173,67.691,115.154,67.688,115.136,67.684z"/>
	<path fill="#FFFFFF" d="M56.121,204.926c-0.843,0.001-1.65-0.333-2.247-0.929l-5.797-5.797c-3.922,1.456-8.279-0.545-9.734-4.465
		c-0.652-1.757-0.63-3.694,0.062-5.436c0.146-0.387,0.482-0.672,0.889-0.753c0.408-0.09,0.836,0.036,1.129,0.336l2.96,2.96
		l1.896-1.897l-2.96-2.959c-0.293-0.297-0.419-0.72-0.336-1.129c0.092-0.405,0.38-0.738,0.768-0.89
		c3.903-1.5,8.285,0.446,9.786,4.351c0.179,0.465,0.312,0.944,0.396,1.435c0.252,1.298,0.154,2.639-0.282,3.888l5.784,5.797
		c1.219,1.262,1.185,3.271-0.076,4.489c-0.583,0.563-1.359,0.883-2.17,0.892L56.121,204.926z M48.508,196.142l0.403,0.472
		l0.081,0.081l6.053,6.066c0.595,0.594,1.558,0.594,2.152,0c0.595-0.595,0.595-1.559,0-2.152l-6.067-6.066h-0.08l-0.471-0.418
		l0.27-0.564c1.401-2.944,0.15-6.469-2.795-7.87c-1.264-0.601-2.699-0.734-4.053-0.376l3.633,3.632l-4.251,4.25l-3.632-3.631
		c-0.809,3.159,1.098,6.377,4.257,7.185c1.309,0.335,2.692,0.211,3.921-0.352L48.508,196.142z"/>
	<path fill="#FFFFFF" d="M201.11,234.916c-0.005-0.051-0.015-0.098-0.029-0.143c-0.035-0.115-0.098-0.225-0.188-0.315
		c-0.123-0.123-0.285-0.2-0.457-0.217c-0.07-0.006-0.141-0.003-0.208,0.01c-0.022,0.002-0.045,0.008-0.067,0.015
		c-0.027,0.008-0.056,0.018-0.08,0.028l-18.486,7.109c-0.387,0.149-0.578,0.585-0.43,0.971c0.078,0.199,0.235,0.356,0.436,0.432
		l7.936,3.01l3.013,7.937c0.11,0.291,0.387,0.483,0.697,0.485h0.003c0.31,0,0.587-0.193,0.699-0.48l7.11-18.486
		c0.01-0.024,0.021-0.052,0.027-0.08c0.007-0.022,0.013-0.045,0.015-0.067C201.113,235.056,201.116,234.985,201.11,234.916
		L201.11,234.916z M197.336,236.956l-7.404,7.404l-5.964-2.263L197.336,236.956L197.336,236.956z M193.254,251.384l-2.263-5.964
		l7.404-7.404L193.254,251.384z"/>
	<path fill="#FFFFFF" d="M256.397,102.855l-0.003-0.001l-0.366-0.083l-0.031-0.011c-1.04-0.313-1.924-1.002-2.479-1.962
		c-0.557-0.966-0.712-2.09-0.456-3.149l0.01-0.04l0.109-0.331l0.001-0.004c0.001-0.011,0.002-0.022,0.001-0.036
		c0-0.037-0.007-0.078-0.02-0.12c-0.012-0.042-0.029-0.081-0.047-0.111c-0.012-0.018-0.02-0.028-0.023-0.033
		c-0.006-0.005-0.014-0.011-0.023-0.018c-0.042-0.032-0.098-0.072-0.168-0.121c-0.213-0.146-0.499-0.326-0.863-0.536
		c-0.365-0.21-0.664-0.366-0.898-0.479c-0.078-0.036-0.141-0.065-0.189-0.086c-0.01-0.004-0.019-0.008-0.027-0.012h-0.004
		c-0.011-0.002-0.021-0.004-0.033-0.004c-0.035,0-0.075,0.004-0.117,0.015c-0.042,0.01-0.081,0.024-0.113,0.043
		c-0.021,0.012-0.035,0.021-0.037,0.023l-0.253,0.271l-0.021,0.021c-0.79,0.747-1.833,1.169-2.944,1.169
		c-1.113,0-2.166-0.428-2.955-1.18l-0.02-0.02l-0.244-0.262l-0.003-0.002c-0.044-0.048-0.235-0.095-0.3-0.074
		c-0.008,0.003-0.018,0.007-0.031,0.013c-0.05,0.021-0.113,0.049-0.19,0.086c-0.235,0.112-0.534,0.269-0.897,0.478
		c-0.363,0.212-0.648,0.392-0.86,0.539c-0.069,0.048-0.124,0.089-0.165,0.12c-0.01,0.007-0.019,0.014-0.027,0.021l-0.002,0.002
		c0,0-0.001,0.001-0.004,0.004c-0.006,0.008-0.012,0.017-0.02,0.027c-0.018,0.03-0.033,0.067-0.046,0.107
		c-0.012,0.041-0.019,0.083-0.019,0.118c-0.001,0.024,0.001,0.041,0.002,0.046l0.105,0.346l0.007,0.029
		c0.251,1.062,0.098,2.179-0.457,3.142c-0.556,0.964-1.45,1.658-2.497,1.969l-0.031,0.009l-0.031,0.007l-0.319,0.072
		c-0.063,0.014-0.2,0.156-0.216,0.223c-0.002,0.008-0.003,0.019-0.004,0.032c-0.008,0.052-0.014,0.12-0.021,0.205
		c-0.02,0.259-0.032,0.596-0.032,1.017s0.013,0.758,0.032,1.017c0.008,0.085,0.014,0.153,0.021,0.205
		c0.001,0.014,0.002,0.025,0.004,0.032c0.016,0.067,0.149,0.208,0.213,0.222l0.004,0.001l0.344,0.079l0.028,0.009
		c1.05,0.311,1.948,1.006,2.502,1.974c0.556,0.966,0.711,2.089,0.456,3.148l-0.006,0.025l-0.102,0.337v0.003
		c0-0.001,0,0.001-0.002,0.006c0,0.01-0.001,0.021,0,0.036c0,0.036,0.007,0.078,0.02,0.119c0.012,0.043,0.028,0.081,0.047,0.112
		c0.011,0.017,0.02,0.028,0.023,0.032c0.006,0.005,0.014,0.011,0.023,0.019c0.042,0.031,0.098,0.072,0.168,0.12
		c0.214,0.147,0.5,0.327,0.864,0.538c0.365,0.211,0.663,0.368,0.896,0.479c0.077,0.036,0.139,0.064,0.188,0.084
		c0.012,0.006,0.022,0.01,0.029,0.013c0.001,0,0.002,0.001,0.006,0.001c0.008,0.001,0.02,0.003,0.033,0.003
		c0.035,0.001,0.075-0.003,0.117-0.015c0.042-0.01,0.081-0.024,0.112-0.042c0.021-0.012,0.034-0.021,0.038-0.025l0.24-0.257
		l0.021-0.021c0.795-0.752,1.842-1.177,2.957-1.177s2.168,0.43,2.959,1.184l0.021,0.02l0.24,0.258l0.002,0.002
		c0.044,0.048,0.235,0.095,0.3,0.074c0.008-0.003,0.02-0.008,0.032-0.013c0.049-0.021,0.112-0.049,0.19-0.087
		c0.235-0.111,0.533-0.268,0.898-0.478c0.363-0.21,0.648-0.389,0.859-0.535c0.07-0.048,0.124-0.089,0.165-0.119
		c0.009-0.007,0.018-0.014,0.026-0.021l0.002-0.002c0,0,0,0,0.003-0.004c0.006-0.007,0.013-0.016,0.02-0.027
		c0.019-0.03,0.034-0.067,0.046-0.108c0.013-0.042,0.02-0.084,0.02-0.12c0.002-0.025-0.001-0.042-0.002-0.047l-0.001-0.002
		l-0.104-0.35l-0.007-0.026c-0.251-1.06-0.097-2.178,0.457-3.135c0.556-0.964,1.454-1.663,2.501-1.973l0.028-0.009l0.343-0.078
		l0.004-0.001c0.062-0.015,0.199-0.156,0.215-0.223c0.002-0.008,0.003-0.019,0.004-0.032c0.008-0.052,0.014-0.12,0.021-0.205
		c0.02-0.258,0.032-0.594,0.032-1.015c-0.001-0.413-0.015-0.745-0.034-1.003c-0.008-0.092-0.016-0.165-0.022-0.221
		c-0.001-0.012-0.003-0.024-0.005-0.036C256.597,103.012,256.46,102.869,256.397,102.855L256.397,102.855z M242.755,96.3
		l0.006-0.004C242.759,96.297,242.757,96.299,242.755,96.3z M258.521,102.737L258.521,102.737c0.016,0.086,0.034,0.232,0.051,0.444
		c0.024,0.309,0.039,0.689,0.041,1.15v0.004c0,0.471-0.015,0.859-0.039,1.17c-0.017,0.202-0.034,0.341-0.048,0.422
		c-0.148,0.832-0.873,1.588-1.694,1.775l-0.28,0.064c-0.564,0.174-1.046,0.552-1.348,1.075c-0.299,0.518-0.385,1.116-0.254,1.691
		l0.086,0.291c0.244,0.807-0.047,1.806-0.69,2.349c-0.065,0.056-0.176,0.141-0.341,0.254c-0.256,0.179-0.586,0.386-0.995,0.622
		l-0.003,0.001c-0.406,0.233-0.749,0.413-1.031,0.547c-0.104,0.05-0.192,0.09-0.269,0.122c-0.052,0.022-0.092,0.038-0.118,0.048
		c-0.796,0.29-1.812,0.044-2.388-0.575l-0.2-0.214c-0.431-0.402-0.998-0.631-1.602-0.631c-0.605,0-1.168,0.226-1.604,0.627
		l-0.198,0.214l-0.003,0.002c-0.578,0.616-1.588,0.862-2.381,0.574c-0.08-0.029-0.208-0.083-0.389-0.169
		c-0.281-0.134-0.625-0.314-1.033-0.551c-0.408-0.235-0.736-0.442-0.994-0.62c-0.168-0.115-0.279-0.199-0.344-0.254l-0.002-0.002
		c-0.643-0.546-0.934-1.544-0.689-2.349l0.083-0.279c0.132-0.574,0.046-1.18-0.257-1.705l-0.001-0.001
		c-0.298-0.521-0.777-0.896-1.345-1.07l-0.279-0.065c-0.826-0.187-1.547-0.942-1.694-1.773c-0.015-0.083-0.032-0.222-0.049-0.424
		c-0.024-0.311-0.039-0.699-0.039-1.17s0.015-0.859,0.039-1.17c0.017-0.202,0.034-0.342,0.048-0.423
		c0.148-0.832,0.873-1.588,1.697-1.775l0.289-0.065c0.562-0.174,1.039-0.548,1.338-1.067c0.301-0.521,0.387-1.122,0.256-1.7
		l-0.086-0.287c-0.244-0.808,0.047-1.803,0.691-2.347c0.064-0.055,0.175-0.139,0.338-0.253c0.257-0.179,0.586-0.386,0.994-0.624
		l0.002-0.002l0.004-0.001c0.406-0.233,0.75-0.414,1.031-0.548c0.104-0.049,0.192-0.09,0.268-0.121
		c0.053-0.022,0.092-0.038,0.119-0.048c0.796-0.29,1.812-0.044,2.389,0.575l0.203,0.218c0.429,0.4,0.994,0.627,1.598,0.627
		s1.162-0.223,1.592-0.62l0.213-0.228c0.578-0.616,1.59-0.861,2.384-0.572l0.003,0.001c0.027,0.01,0.066,0.025,0.118,0.047
		c0.075,0.033,0.163,0.072,0.267,0.122c0.279,0.134,0.621,0.313,1.027,0.547l0.003,0.001c0.409,0.236,0.737,0.442,0.995,0.62
		c0.168,0.115,0.279,0.2,0.344,0.255l0.002,0.002c0.643,0.547,0.935,1.546,0.689,2.352l-0.004,0.012l-0.094,0.282
		c-0.129,0.57-0.041,1.17,0.258,1.688c0.3,0.519,0.771,0.891,1.333,1.068l0.297,0.067
		C257.65,101.151,258.372,101.908,258.521,102.737L258.521,102.737z M247.408,108.829c-2.476,0-4.483-2.008-4.483-4.485
		c0-2.477,2.007-4.483,4.483-4.483c2.476,0,4.484,2.009,4.484,4.488C251.888,106.823,249.882,108.829,247.408,108.829z
		 M247.408,106.89c1.403,0,2.542-1.139,2.546-2.543c0-1.406-1.141-2.547-2.546-2.547s-2.545,1.139-2.545,2.544
		C244.863,105.75,246.004,106.89,247.408,106.89z"/>
	<g>
		<path opacity="0.1" fill="#6E9AF4" enable-background="new    " d="M126.223,213.249c0,2.133,13.84,3.865,30.908,3.865
			c17.072,0,30.912-1.732,30.912-3.865l0,0c0.004-2.135-13.834-3.863-30.904-3.863c-17.072-0.002-30.914,1.729-30.916,3.861V213.249
			z"/>
		<path opacity="0.5" fill="#6E9AF4" enable-background="new    " d="M126.145,207.3c0,0.656,0.502,1.16,1.158,1.16
			c0.658,0,1.16-0.504,1.16-1.16s-0.502-1.16-1.16-1.16C126.686,206.14,126.145,206.683,126.145,207.3z M188.043,209.231
			c-1.16,0.309-1.43,0.539-1.74,1.74c-0.309-1.162-0.541-1.432-1.738-1.74c1.158-0.309,1.43-0.58,1.738-1.738
			C186.613,208.651,186.844,208.923,188.043,209.231z M139.359,155.95c-1.471,0.387-1.777,0.695-2.201,2.203
			c-0.389-1.469-0.695-1.779-2.203-2.203c1.467-0.387,1.775-0.695,2.203-2.201C137.582,155.216,137.889,155.524,139.359,155.95z
			 M132.25,203.397c-1.623,0.424-1.971,0.771-2.396,2.395c-0.424-1.623-0.771-1.971-2.396-2.395
			c1.625-0.424,1.973-0.773,2.396-2.395C130.316,202.624,130.664,202.974,132.25,203.397z M134.723,160.509
			c-3.016,0.773-3.631,1.43-4.443,4.443c-0.773-3.014-1.432-3.633-4.443-4.443c3.012-0.771,3.631-1.43,4.443-4.443
			C131.051,159.042,131.707,159.698,134.723,160.509z"/>
		<path opacity="0.2" fill="#6E9AF4" enable-background="new    " d="M179.891,186.503v0.348l2.82,2.705l11.012-5.371l-9.93,6.373
			v3.131l1.584-1.545v-0.039l0.037,0.039l1.586,1.545l8.539-10.395v-0.383L179.891,186.503z"/>
		<path opacity="0.5" fill="#6E9AF4" enable-background="new    " d="M163.305,186.337c0-0.115,0-0.232-0.027-0.348
			c0.027-1.152-0.721-2.221-1.848-2.537c-0.402-0.174-0.865-0.289-1.324-0.289h-6.348l0.492-8.74h9.113
			c1.154,0,2.105-0.924,2.105-2.105c0-1.154-0.951-2.105-2.105-2.105h-8.883l0.059-1.039c0.143-2.365-1.676-4.383-4.039-4.527
			c-2.367-0.145-4.385,1.672-4.531,4.039l-0.893,16.035c-0.059,1.27,0.434,2.424,1.24,3.262c0.576,0.893,1.557,1.498,2.711,1.498
			h8.221l-2.48,11.855c-0.287,1.414,0.605,2.77,1.99,3.086c1.385,0.318,2.768-0.605,3.086-1.99l3.115-14.623
			C163.191,187.374,163.305,186.854,163.305,186.337z"/>
		<path opacity="0.5" fill="#6E9AF4" enable-background="new    " d="M152.748,190.231h-9.662l-0.578-4.213
			c0.779-0.375,1.24-1.213,1.125-2.105l-1.615-11.826c-0.145-1.125-1.182-1.904-2.305-1.76c-1.129,0.145-1.904,1.182-1.762,2.307
			l1.615,11.826c0.088,0.752,0.576,1.328,1.211,1.588l0.576,4.184c-0.662,0.115-1.152,0.662-1.152,1.355
			c0,0.75,0.605,1.355,1.354,1.355h3.061v4.701h4.729v-4.674h3.404c0.752,0,1.385-0.605,1.385-1.355S153.5,190.231,152.748,190.231z
			 M149.373,202.403h-1.037v-4.559h-2.426v4.586h-1.182c-2.135,0-3.863,1.242-3.863,2.77h12.346
			C153.238,203.644,151.506,202.403,149.373,202.403z M156.873,178.259h8.596v24.115h-2.164v2.51h7.818v-2.51h-2.307v-24.115h7.439
			v-2.941h-19.383V178.259z M181.016,161.356c-0.404-0.145-0.893,0.174-1.096,0.75l-4.154,11.076h-9.605
			c-0.43,0-0.805,0.346-0.805,0.807c0,0.434,0.346,0.809,0.805,0.809h9.895c0.404,0.115,0.865-0.203,1.068-0.75l4.268-11.365
			C181.564,162.106,181.422,161.53,181.016,161.356z M151.998,163.636c2.684,0,4.846-2.049,4.846-4.588
			c0-2.537-2.162-4.586-4.846-4.586c-2.68,0-4.846,2.049-4.846,4.586C147.152,161.587,149.318,163.636,151.998,163.636z"/>
	</g>
	<path fill="#FFFFFF" d="M261.288,182.324c-1.324,0-2.398-1.074-2.398-2.399s1.074-2.399,2.398-2.399c1.326,0,2.4,1.074,2.4,2.399
		S262.614,182.324,261.288,182.324z M270.017,182.324c-1.324,0-2.399-1.074-2.399-2.399s1.075-2.399,2.399-2.399
		c1.326,0,2.4,1.074,2.4,2.399S271.343,182.324,270.017,182.324z M278.745,182.324c-1.324,0-2.399-1.074-2.399-2.399
		s1.075-2.399,2.399-2.399c1.325,0,2.4,1.074,2.4,2.399S280.07,182.324,278.745,182.324z"/>
</g>
</svg>
